<?xml version="1.0" encoding="UTF-8"?>
<svg xmlns="http://www.w3.org/2000/svg" width="1391.3" height="397" viewBox="0 0 1391.3 397" role="img" aria-labelledby="stack-title stack-description" data-engine-version="0.9.0" data-theme-id="default" data-theme-version="0.7.0" data-theme-revision="sha256:4a8b94b746c6b120998bfbe701edd722449a28c89c424b0a33f67561756ded5a">
  <title id="stack-title">Fan-out and cross edges</title>
  <desc id="stack-description">Architecture diagram with 8 nodes, 0 groups, and 10 relationships.</desc>
  <metadata>stack-engine 0.9.0; language 1.0; theme 0.7.0 at sha256:4a8b94b746c6b120998bfbe701edd722449a28c89c424b0a33f67561756ded5a</metadata>
  <rect x="0" y="0" width="1391.3" height="397" fill="#F3F6FA"/>
  <defs>
    <marker id="stack-arrow" markerUnits="userSpaceOnUse" markerWidth="7" markerHeight="7" refX="9000" refY="5000" viewBox="0 0 10000 10000" orient="auto-start-reverse">
      <path d="M 0 0 L 10000 5000 L 0 10000 z" fill="#475569"/>
    </marker>
  </defs>
  <text x="32" y="50.2" fill="#142033" font-family="system-ui" font-size="13" font-weight="600">Fan-out and cross edges</text>
  <g data-stack-layer="groups">
  </g>
  <g data-stack-layer="edges">
    <g role="group" aria-label="Ingress flows to Identity service: Authenticate" data-edge-kind="request" data-edge-direction="forward">
      <title>Ingress flows to Identity service: Authenticate</title>
      <polyline points="152,181.6 152,124.2 304.75,124.2" fill="none" stroke="#475569" stroke-width="1.5" stroke-linecap="round" stroke-linejoin="round" marker-end="url(#stack-arrow)" />
    </g>
    <g role="group" aria-label="Ingress flows to Catalog service: Browse" data-edge-kind="request" data-edge-direction="forward">
      <title>Ingress flows to Catalog service: Browse</title>
      <polyline points="192,217.6 304.75,217.6" fill="none" stroke="#475569" stroke-width="1.5" stroke-linecap="round" stroke-linejoin="round" marker-end="url(#stack-arrow)" />
    </g>
    <g role="group" aria-label="Ingress flows to Checkout service: Purchase" data-edge-kind="request" data-edge-direction="forward">
      <title>Ingress flows to Checkout service: Purchase</title>
      <polyline points="152,253.6 152,311 304.75,311" fill="none" stroke="#475569" stroke-width="1.5" stroke-linecap="round" stroke-linejoin="round" marker-end="url(#stack-arrow)" />
    </g>
    <g role="group" aria-label="Identity service flows to Primary database: Session" data-edge-kind="data" data-edge-direction="forward">
      <title>Identity service flows to Primary database: Session</title>
      <polyline points="486.45,124.2 1058.85,124.2 1058.85,143.9 1163.6,143.9" fill="none" stroke="#475569" stroke-width="1.5" stroke-linecap="round" stroke-linejoin="round" marker-end="url(#stack-arrow)" />
    </g>
    <g role="group" aria-label="Catalog service flows to Primary database: Products" data-edge-kind="data" data-edge-direction="forward">
      <title>Catalog service flows to Primary database: Products</title>
      <polyline points="485.75,217.6 603.8,217.6 603.8,161.9 1163.6,161.9" fill="none" stroke="#475569" stroke-width="1.5" stroke-linecap="round" stroke-linejoin="round" marker-end="url(#stack-arrow)" />
    </g>
    <g role="group" aria-label="Checkout service flows to Order events: OrderPlaced" data-edge-kind="event" data-edge-direction="forward">
      <title>Checkout service flows to Order events: OrderPlaced</title>
      <polyline points="499.05,311 693.2,311 693.2,253.6" fill="none" stroke="#475569" stroke-width="1.5" stroke-linecap="round" stroke-linejoin="round" marker-end="url(#stack-arrow)" />
    </g>
    <g role="group" aria-label="Order events flows to Order worker: Dispatch" data-edge-kind="event" data-edge-direction="forward">
      <title>Order events flows to Order worker: Dispatch</title>
      <polyline points="774.6,217.6 887.35,217.6" fill="none" stroke="#475569" stroke-width="1.5" stroke-linecap="round" stroke-linejoin="round" marker-end="url(#stack-arrow)" />
    </g>
    <g role="group" aria-label="Order worker flows to Primary database: Persist" data-edge-kind="data" data-edge-direction="forward">
      <title>Order worker flows to Primary database: Persist</title>
      <polyline points="1050.85,217.6 1212.525,217.6 1212.525,197.9" fill="none" stroke="#475569" stroke-width="1.5" stroke-linecap="round" stroke-linejoin="round" marker-end="url(#stack-arrow)" />
    </g>
    <g role="group" aria-label="Identity service flows to Audit archive: Access log" data-edge-kind="data" data-edge-direction="forward">
      <title>Identity service flows to Audit archive: Access log</title>
      <polyline points="441.025,142.2 441.025,173.6 1058.85,173.6 1058.85,255.3 1163.6,255.3" fill="none" stroke="#475569" stroke-width="1.5" stroke-linecap="round" stroke-linejoin="round" marker-end="url(#stack-arrow)" />
    </g>
    <g role="group" aria-label="Checkout service flows to Audit archive: Checkout log" data-edge-kind="data" data-edge-direction="forward">
      <title>Checkout service flows to Audit archive: Checkout log</title>
      <polyline points="499.05,329 1058.85,329 1058.85,291.3 1163.6,291.3" fill="none" stroke="#475569" stroke-width="1.5" stroke-linecap="round" stroke-linejoin="round" marker-end="url(#stack-arrow)" />
    </g>
  </g>
  <g data-stack-layer="nodes">
    <g role="group" aria-label="Ingress" data-stack-id="ingress" data-node-kind="service">
      <title>Ingress</title>
      <rect x="32" y="181.6" width="160" height="72" rx="8" fill="#FFFFFF" stroke="#1D63D8" stroke-width="1.5"/>
      <svg x="52" y="205.6" width="24" height="24" viewBox="0 0 24 24" color="#1D63D8" aria-hidden="true" focusable="false" data-icon-id="gateway"><rect x="8" y="4" width="8" height="16" rx="2" fill="none" stroke="currentColor" stroke-width="1.75"/>
  <path d="M3 8h5M5.5 5.5 8 8l-2.5 2.5M21 16h-5M18.5 13.5 16 16l2.5 2.5" fill="none" stroke="currentColor" stroke-width="1.75" stroke-linecap="round" stroke-linejoin="round"/> </svg>
      <text x="88" y="217.6" dominant-baseline="middle" fill="#142033" font-family="system-ui" font-size="14" font-weight="600">Ingress</text>
    </g>
    <g role="group" aria-label="Identity service" data-stack-id="auth" data-node-kind="service">
      <title>Identity service</title>
      <rect x="304.75" y="70.2" width="181.7" height="72" rx="8" fill="#FFFFFF" stroke="#1D63D8" stroke-width="1.5"/>
      <svg x="324.75" y="94.2" width="24" height="24" viewBox="0 0 24 24" color="#1D63D8" aria-hidden="true" focusable="false" data-icon-id="identity"><path d="M12 3 5 6v5c0 4.5 2.8 8.2 7 10 4.2-1.8 7-5.5 7-10V6l-7-3Z" fill="none" stroke="currentColor" stroke-width="1.75" stroke-linejoin="round"/>
  <circle cx="12" cy="10" r="2" fill="none" stroke="currentColor" stroke-width="1.75"/>
  <path d="M8.5 16c.5-2 1.7-3 3.5-3s3 1 3.5 3" fill="none" stroke="currentColor" stroke-width="1.75" stroke-linecap="round"/> </svg>
      <text x="360.75" y="106.2" dominant-baseline="middle" fill="#142033" font-family="system-ui" font-size="14" font-weight="600">Identity service</text>
    </g>
    <g role="group" aria-label="Catalog service" data-stack-id="catalog" data-node-kind="service">
      <title>Catalog service</title>
      <rect x="304.75" y="181.6" width="181" height="72" rx="8" fill="#FFFFFF" stroke="#1D63D8" stroke-width="1.5"/>
      <svg x="324.75" y="205.6" width="24" height="24" viewBox="0 0 24 24" color="#1D63D8" aria-hidden="true" focusable="false" data-icon-id="kind-service"><rect x="4" y="4" width="16" height="5" rx="2" fill="none" stroke="currentColor" stroke-width="1.75"/>
  <rect x="4" y="15" width="16" height="5" rx="2" fill="none" stroke="currentColor" stroke-width="1.75"/>
  <path d="M8 9v6M16 9v6" fill="none" stroke="currentColor" stroke-width="1.75"/> </svg>
      <text x="360.75" y="217.6" dominant-baseline="middle" fill="#142033" font-family="system-ui" font-size="14" font-weight="600">Catalog service</text>
    </g>
    <g role="group" aria-label="Checkout service" data-stack-id="checkout" data-node-kind="service">
      <title>Checkout service</title>
      <rect x="304.75" y="293" width="194.3" height="72" rx="8" fill="#FFFFFF" stroke="#1D63D8" stroke-width="1.5"/>
      <svg x="324.75" y="317" width="24" height="24" viewBox="0 0 24 24" color="#1D63D8" aria-hidden="true" focusable="false" data-icon-id="kind-service"><rect x="4" y="4" width="16" height="5" rx="2" fill="none" stroke="currentColor" stroke-width="1.75"/>
  <rect x="4" y="15" width="16" height="5" rx="2" fill="none" stroke="currentColor" stroke-width="1.75"/>
  <path d="M8 9v6M16 9v6" fill="none" stroke="currentColor" stroke-width="1.75"/> </svg>
      <text x="360.75" y="329" dominant-baseline="middle" fill="#142033" font-family="system-ui" font-size="14" font-weight="600">Checkout service</text>
    </g>
    <g role="group" aria-label="Order events" data-stack-id="events" data-node-kind="queue">
      <title>Order events</title>
      <rect x="611.8" y="181.6" width="162.8" height="72" rx="16" fill="#E5EBF3" stroke="#1D63D8" stroke-width="1.5"/>
      <svg x="631.8" y="205.6" width="24" height="24" viewBox="0 0 24 24" color="#1D63D8" aria-hidden="true" focusable="false" data-icon-id="kind-queue"><circle cx="5" cy="7" r="2" fill="none" stroke="currentColor" stroke-width="1.75"/>
  <circle cx="5" cy="17" r="2" fill="none" stroke="currentColor" stroke-width="1.75"/>
  <path d="M7 7h10l3 3-3 3H7M7 17h12" fill="none" stroke="currentColor" stroke-width="1.75" stroke-linecap="round" stroke-linejoin="round"/> </svg>
      <text x="667.8" y="217.6" dominant-baseline="middle" fill="#142033" font-family="system-ui" font-size="14" font-weight="600">Order events</text>
    </g>
    <g role="group" aria-label="Order worker" data-stack-id="worker" data-node-kind="worker">
      <title>Order worker</title>
      <rect x="887.35" y="181.6" width="163.5" height="72" rx="16" fill="#FFFFFF" stroke="#64748B" stroke-width="1.5"/>
      <svg x="907.35" y="205.6" width="24" height="24" viewBox="0 0 24 24" color="#1D63D8" aria-hidden="true" focusable="false" data-icon-id="kind-worker"><circle cx="12" cy="12" r="3" fill="none" stroke="currentColor" stroke-width="1.75"/>
  <path d="M12 3v3M12 18v3M3 12h3M18 12h3M5.6 5.6l2.1 2.1M16.3 16.3l2.1 2.1M18.4 5.6l-2.1 2.1M7.7 16.3l-2.1 2.1" fill="none" stroke="currentColor" stroke-width="1.75" stroke-linecap="round"/> </svg>
      <text x="943.35" y="217.6" dominant-baseline="middle" fill="#142033" font-family="system-ui" font-size="14" font-weight="600">Order worker</text>
    </g>
    <g role="group" aria-label="Primary database" data-stack-id="database" data-node-kind="database">
      <title>Primary database</title>
      <rect x="1163.6" y="125.9" width="195.7" height="72" rx="8" fill="#FFFFFF" stroke="#1D63D8" stroke-width="1.5"/>
      <svg x="1183.6" y="149.9" width="24" height="24" viewBox="0 0 24 24" color="#1D63D8" aria-hidden="true" focusable="false" data-icon-id="kind-database"><ellipse cx="12" cy="5" rx="8" ry="3" fill="none" stroke="currentColor" stroke-width="1.75"/>
  <path d="M4 5v7c0 1.7 3.6 3 8 3s8-1.3 8-3V5M4 12v7c0 1.7 3.6 3 8 3s8-1.3 8-3v-7" fill="none" stroke="currentColor" stroke-width="1.75"/> </svg>
      <text x="1219.6" y="161.9" dominant-baseline="middle" fill="#142033" font-family="system-ui" font-size="14" font-weight="600">Primary database</text>
    </g>
    <g role="group" aria-label="Audit archive" data-stack-id="audit" data-node-kind="storage">
      <title>Audit archive</title>
      <rect x="1163.6" y="237.3" width="164.2" height="72" rx="4" fill="#FFFFFF" stroke="#64748B" stroke-width="1.5"/>
      <svg x="1183.6" y="261.3" width="24" height="24" viewBox="0 0 24 24" color="#1D63D8" aria-hidden="true" focusable="false" data-icon-id="kind-storage"><path d="M3 6h7l2 3h9v10H3V6Z" fill="none" stroke="currentColor" stroke-width="1.75" stroke-linejoin="round"/>
  <path d="M3 9h18" fill="none" stroke="currentColor" stroke-width="1.75"/> </svg>
      <text x="1219.6" y="273.3" dominant-baseline="middle" fill="#142033" font-family="system-ui" font-size="14" font-weight="600">Audit archive</text>
    </g>
  </g>
  <g data-stack-layer="edge-labels" aria-hidden="true">
    <g data-edge-label="Authenticate">
      <rect x="188.825" y="92.8" width="79.1" height="23.4" rx="4" fill="#F3F6FA"/>
      <text x="228.375" y="104.5" text-anchor="middle" dominant-baseline="middle" fill="#475569" font-family="system-ui" font-size="11">Authenticate</text>
    </g>
    <g data-edge-label="Browse">
      <rect x="222.575" y="186.2" width="51.6" height="23.4" rx="4" fill="#F3F6FA"/>
      <text x="248.375" y="197.9" text-anchor="middle" dominant-baseline="middle" fill="#475569" font-family="system-ui" font-size="11">Browse</text>
    </g>
    <g data-edge-label="Purchase">
      <rect x="197.075" y="279.6" width="62.6" height="23.4" rx="4" fill="#F3F6FA"/>
      <text x="228.375" y="291.3" text-anchor="middle" dominant-baseline="middle" fill="#475569" font-family="system-ui" font-size="11">Purchase</text>
    </g>
    <g data-edge-label="Session">
      <rect x="745.475" y="92.8" width="54.35" height="23.4" rx="4" fill="#F3F6FA"/>
      <text x="772.65" y="104.5" text-anchor="middle" dominant-baseline="middle" fill="#475569" font-family="system-ui" font-size="11">Session</text>
    </g>
    <g data-edge-label="Products">
      <rect x="853.775" y="130.5" width="59.85" height="23.4" rx="4" fill="#F3F6FA"/>
      <text x="883.7" y="142.2" text-anchor="middle" dominant-baseline="middle" fill="#475569" font-family="system-ui" font-size="11">Products</text>
    </g>
    <g data-edge-label="OrderPlaced">
      <rect x="557.95" y="279.6" width="76.35" height="23.4" rx="4" fill="#F3F6FA"/>
      <text x="596.125" y="291.3" text-anchor="middle" dominant-baseline="middle" fill="#475569" font-family="system-ui" font-size="11">OrderPlaced</text>
    </g>
    <g data-edge-label="Dispatch">
      <rect x="801.875" y="186.2" width="58.2" height="23.4" rx="4" fill="#F3F6FA"/>
      <text x="830.975" y="197.9" text-anchor="middle" dominant-baseline="middle" fill="#475569" font-family="system-ui" font-size="11">Dispatch</text>
    </g>
    <g data-edge-label="Persist">
      <rect x="1106.987" y="186.2" width="49.4" height="23.4" rx="4" fill="#F3F6FA"/>
      <text x="1131.687" y="197.9" text-anchor="middle" dominant-baseline="middle" fill="#475569" font-family="system-ui" font-size="11">Persist</text>
    </g>
    <g data-edge-label="Access log">
      <rect x="1076.075" y="223.9" width="70.3" height="23.4" rx="4" fill="#F3F6FA"/>
      <text x="1111.225" y="235.6" text-anchor="middle" dominant-baseline="middle" fill="#475569" font-family="system-ui" font-size="11">Access log</text>
    </g>
    <g data-edge-label="Checkout log">
      <rect x="738.575" y="297.6" width="80.75" height="23.4" rx="4" fill="#F3F6FA"/>
      <text x="778.95" y="309.3" text-anchor="middle" dominant-baseline="middle" fill="#475569" font-family="system-ui" font-size="11">Checkout log</text>
    </g>
  </g>
</svg>
